<mxfile host="app.diagrams.net" modified="2024-05-13T16:41:15.194Z" agent="Mozilla/5.0 (Windows NT 10.0; Win64; x64) AppleWebKit/537.36 (KHTML, like Gecko) Chrome/124.0.0.0 Safari/537.36 Edg/124.0.0.0" etag="qmZcPNBei6474J52RuwG" version="24.4.0" type="device">
  <diagram name="Page-1" id="2YBvvXClWsGukQMizWep">
    <mxGraphModel dx="1386" dy="797" grid="1" gridSize="10" guides="1" tooltips="1" connect="1" arrows="1" fold="1" page="1" pageScale="1" pageWidth="850" pageHeight="1100" math="0" shadow="0">
      <root>
        <mxCell id="0" />
        <mxCell id="1" parent="0" />
        <mxCell id="4TTl5-seLimv4Rh16rUn-130" value="Authenticate" style="html=1;verticalAlign=bottom;endArrow=block;curved=0;rounded=0;" parent="1" edge="1">
          <mxGeometry width="80" relative="1" as="geometry">
            <mxPoint x="230" y="859" as="sourcePoint" />
            <mxPoint x="725" y="859" as="targetPoint" />
          </mxGeometry>
        </mxCell>
        <mxCell id="4TTl5-seLimv4Rh16rUn-63" value="" style="shape=umlLifeline;perimeter=lifelinePerimeter;whiteSpace=wrap;html=1;container=1;dropTarget=0;collapsible=0;recursiveResize=0;outlineConnect=0;portConstraint=eastwest;newEdgeStyle={&quot;curved&quot;:0,&quot;rounded&quot;:0};participant=umlActor;" parent="1" vertex="1">
          <mxGeometry x="50" y="10" width="20" height="1090" as="geometry" />
        </mxCell>
        <mxCell id="4TTl5-seLimv4Rh16rUn-69" value="" style="html=1;points=[[0,0,0,0,5],[0,1,0,0,-5],[1,0,0,0,5],[1,1,0,0,-5]];perimeter=orthogonalPerimeter;outlineConnect=0;targetShapes=umlLifeline;portConstraint=eastwest;newEdgeStyle={&quot;curved&quot;:0,&quot;rounded&quot;:0};" parent="4TTl5-seLimv4Rh16rUn-63" vertex="1">
          <mxGeometry x="5" y="80" width="10" height="1000" as="geometry" />
        </mxCell>
        <mxCell id="4TTl5-seLimv4Rh16rUn-64" value="Database" style="shape=umlLifeline;perimeter=lifelinePerimeter;whiteSpace=wrap;html=1;container=1;dropTarget=0;collapsible=0;recursiveResize=0;outlineConnect=0;portConstraint=eastwest;newEdgeStyle={&quot;curved&quot;:0,&quot;rounded&quot;:0};" parent="1" vertex="1">
          <mxGeometry x="780" y="10" width="60" height="1090" as="geometry" />
        </mxCell>
        <mxCell id="4TTl5-seLimv4Rh16rUn-70" value="" style="html=1;points=[[0,0,0,0,5],[0,1,0,0,-5],[1,0,0,0,5],[1,1,0,0,-5]];perimeter=orthogonalPerimeter;outlineConnect=0;targetShapes=umlLifeline;portConstraint=eastwest;newEdgeStyle={&quot;curved&quot;:0,&quot;rounded&quot;:0};" parent="4TTl5-seLimv4Rh16rUn-64" vertex="1">
          <mxGeometry x="25" y="79" width="10" height="1001" as="geometry" />
        </mxCell>
        <mxCell id="4TTl5-seLimv4Rh16rUn-65" value="[Login]" style="text;align=center;fontStyle=1;verticalAlign=middle;spacingLeft=3;spacingRight=3;strokeColor=none;rotatable=0;points=[[0,0.5],[1,0.5]];portConstraint=eastwest;html=1;" parent="1" vertex="1">
          <mxGeometry x="60" y="90" width="50" height="26" as="geometry" />
        </mxCell>
        <mxCell id="4TTl5-seLimv4Rh16rUn-67" value="Authentication" style="shape=umlLifeline;perimeter=lifelinePerimeter;whiteSpace=wrap;html=1;container=1;dropTarget=0;collapsible=0;recursiveResize=0;outlineConnect=0;portConstraint=eastwest;newEdgeStyle={&quot;curved&quot;:0,&quot;rounded&quot;:0};" parent="1" vertex="1">
          <mxGeometry x="690" y="10" width="80" height="920" as="geometry" />
        </mxCell>
        <mxCell id="4TTl5-seLimv4Rh16rUn-102" value="" style="html=1;points=[[0,0,0,0,5],[0,1,0,0,-5],[1,0,0,0,5],[1,1,0,0,-5]];perimeter=orthogonalPerimeter;outlineConnect=0;targetShapes=umlLifeline;portConstraint=eastwest;newEdgeStyle={&quot;curved&quot;:0,&quot;rounded&quot;:0};" parent="4TTl5-seLimv4Rh16rUn-67" vertex="1">
          <mxGeometry x="35" y="510" width="10" height="60" as="geometry" />
        </mxCell>
        <mxCell id="4TTl5-seLimv4Rh16rUn-112" value="" style="html=1;points=[[0,0,0,0,5],[0,1,0,0,-5],[1,0,0,0,5],[1,1,0,0,-5]];perimeter=orthogonalPerimeter;outlineConnect=0;targetShapes=umlLifeline;portConstraint=eastwest;newEdgeStyle={&quot;curved&quot;:0,&quot;rounded&quot;:0};" parent="4TTl5-seLimv4Rh16rUn-67" vertex="1">
          <mxGeometry x="35" y="704" width="10" height="60" as="geometry" />
        </mxCell>
        <mxCell id="4TTl5-seLimv4Rh16rUn-113" value="Authenticate" style="html=1;verticalAlign=bottom;endArrow=block;curved=0;rounded=0;" parent="4TTl5-seLimv4Rh16rUn-67" target="4TTl5-seLimv4Rh16rUn-112" edge="1">
          <mxGeometry width="80" relative="1" as="geometry">
            <mxPoint x="-40" y="724" as="sourcePoint" />
            <mxPoint x="20" y="724" as="targetPoint" />
          </mxGeometry>
        </mxCell>
        <mxCell id="4TTl5-seLimv4Rh16rUn-114" value="Patient Logged In" style="html=1;verticalAlign=bottom;endArrow=open;dashed=1;endSize=8;curved=0;rounded=0;fontSize=8;" parent="4TTl5-seLimv4Rh16rUn-67" edge="1">
          <mxGeometry relative="1" as="geometry">
            <mxPoint x="35" y="751" as="sourcePoint" />
            <mxPoint x="-40" y="751" as="targetPoint" />
          </mxGeometry>
        </mxCell>
        <mxCell id="4TTl5-seLimv4Rh16rUn-129" value="" style="html=1;points=[[0,0,0,0,5],[0,1,0,0,-5],[1,0,0,0,5],[1,1,0,0,-5]];perimeter=orthogonalPerimeter;outlineConnect=0;targetShapes=umlLifeline;portConstraint=eastwest;newEdgeStyle={&quot;curved&quot;:0,&quot;rounded&quot;:0};" parent="4TTl5-seLimv4Rh16rUn-67" vertex="1">
          <mxGeometry x="35" y="828" width="10" height="60" as="geometry" />
        </mxCell>
        <mxCell id="4TTl5-seLimv4Rh16rUn-131" value="Patient Logged In" style="html=1;verticalAlign=bottom;endArrow=open;dashed=1;endSize=8;curved=0;rounded=0;fontSize=11;" parent="4TTl5-seLimv4Rh16rUn-67" edge="1">
          <mxGeometry relative="1" as="geometry">
            <mxPoint x="35" y="871" as="sourcePoint" />
            <mxPoint x="-460" y="871" as="targetPoint" />
          </mxGeometry>
        </mxCell>
        <mxCell id="4TTl5-seLimv4Rh16rUn-68" value="login(username, password)" style="html=1;verticalAlign=middle;endArrow=block;curved=0;rounded=0;labelPosition=right;verticalLabelPosition=middle;align=left;" parent="1" source="4TTl5-seLimv4Rh16rUn-69" edge="1">
          <mxGeometry x="0.527" y="10" width="80" relative="1" as="geometry">
            <mxPoint x="190" y="130" as="sourcePoint" />
            <mxPoint x="805" y="130" as="targetPoint" />
            <mxPoint as="offset" />
          </mxGeometry>
        </mxCell>
        <mxCell id="4TTl5-seLimv4Rh16rUn-71" value="Login Successfully, Return P_ID" style="html=1;verticalAlign=bottom;endArrow=open;dashed=1;endSize=8;curved=0;rounded=0;" parent="1" target="4TTl5-seLimv4Rh16rUn-69" edge="1">
          <mxGeometry relative="1" as="geometry">
            <mxPoint x="800" y="150" as="sourcePoint" />
            <mxPoint x="90" y="150" as="targetPoint" />
          </mxGeometry>
        </mxCell>
        <mxCell id="4TTl5-seLimv4Rh16rUn-72" value="[Book Appointment]" style="text;align=center;fontStyle=1;verticalAlign=middle;spacingLeft=3;spacingRight=3;strokeColor=none;rotatable=0;points=[[0,0.5],[1,0.5]];portConstraint=eastwest;html=1;" parent="1" vertex="1">
          <mxGeometry x="70" y="160" width="110" height="26" as="geometry" />
        </mxCell>
        <mxCell id="4TTl5-seLimv4Rh16rUn-73" value="Fill Info" style="shape=umlLifeline;perimeter=lifelinePerimeter;whiteSpace=wrap;html=1;container=1;dropTarget=0;collapsible=0;recursiveResize=0;outlineConnect=0;portConstraint=eastwest;newEdgeStyle={&quot;curved&quot;:0,&quot;rounded&quot;:0};" parent="1" vertex="1">
          <mxGeometry x="150" y="186" width="50" height="504" as="geometry" />
        </mxCell>
        <mxCell id="4TTl5-seLimv4Rh16rUn-74" value="" style="html=1;points=[[0,0,0,0,5],[0,1,0,0,-5],[1,0,0,0,5],[1,1,0,0,-5]];perimeter=orthogonalPerimeter;outlineConnect=0;targetShapes=umlLifeline;portConstraint=eastwest;newEdgeStyle={&quot;curved&quot;:0,&quot;rounded&quot;:0};" parent="4TTl5-seLimv4Rh16rUn-73" vertex="1">
          <mxGeometry x="20" y="54" width="10" height="446" as="geometry" />
        </mxCell>
        <mxCell id="4TTl5-seLimv4Rh16rUn-76" value="bookAppointments()" style="html=1;verticalAlign=bottom;endArrow=block;curved=0;rounded=0;" parent="1" edge="1">
          <mxGeometry width="80" relative="1" as="geometry">
            <mxPoint x="65" y="252" as="sourcePoint" />
            <mxPoint x="170" y="252" as="targetPoint" />
          </mxGeometry>
        </mxCell>
        <mxCell id="4TTl5-seLimv4Rh16rUn-77" value=":specialty" style="shape=umlLifeline;perimeter=lifelinePerimeter;whiteSpace=wrap;html=1;container=1;dropTarget=0;collapsible=0;recursiveResize=0;outlineConnect=0;portConstraint=eastwest;newEdgeStyle={&quot;curved&quot;:0,&quot;rounded&quot;:0};" parent="1" vertex="1">
          <mxGeometry x="260" y="10" width="60" height="680" as="geometry" />
        </mxCell>
        <mxCell id="4TTl5-seLimv4Rh16rUn-79" value="" style="html=1;points=[[0,0,0,0,5],[0,1,0,0,-5],[1,0,0,0,5],[1,1,0,0,-5]];perimeter=orthogonalPerimeter;outlineConnect=0;targetShapes=umlLifeline;portConstraint=eastwest;newEdgeStyle={&quot;curved&quot;:0,&quot;rounded&quot;:0};" parent="4TTl5-seLimv4Rh16rUn-77" vertex="1">
          <mxGeometry x="25" y="240" width="10" height="50" as="geometry" />
        </mxCell>
        <mxCell id="4TTl5-seLimv4Rh16rUn-78" value="retrieveDepartment()" style="html=1;verticalAlign=bottom;endArrow=block;curved=0;rounded=0;" parent="1" target="4TTl5-seLimv4Rh16rUn-79" edge="1">
          <mxGeometry width="80" relative="1" as="geometry">
            <mxPoint x="180" y="270" as="sourcePoint" />
            <mxPoint x="290" y="270" as="targetPoint" />
          </mxGeometry>
        </mxCell>
        <mxCell id="4TTl5-seLimv4Rh16rUn-80" value="Select Department" style="html=1;verticalAlign=bottom;endArrow=open;dashed=1;endSize=8;curved=0;rounded=0;" parent="1" edge="1">
          <mxGeometry relative="1" as="geometry">
            <mxPoint x="285" y="289" as="sourcePoint" />
            <mxPoint x="180" y="289" as="targetPoint" />
          </mxGeometry>
        </mxCell>
        <mxCell id="4TTl5-seLimv4Rh16rUn-81" value=":consultation" style="shape=umlLifeline;perimeter=lifelinePerimeter;whiteSpace=wrap;html=1;container=1;dropTarget=0;collapsible=0;recursiveResize=0;outlineConnect=0;portConstraint=eastwest;newEdgeStyle={&quot;curved&quot;:0,&quot;rounded&quot;:0};" parent="1" vertex="1">
          <mxGeometry x="330" y="10" width="80" height="680" as="geometry" />
        </mxCell>
        <mxCell id="4TTl5-seLimv4Rh16rUn-83" value="" style="html=1;points=[[0,0,0,0,5],[0,1,0,0,-5],[1,0,0,0,5],[1,1,0,0,-5]];perimeter=orthogonalPerimeter;outlineConnect=0;targetShapes=umlLifeline;portConstraint=eastwest;newEdgeStyle={&quot;curved&quot;:0,&quot;rounded&quot;:0};" parent="4TTl5-seLimv4Rh16rUn-81" vertex="1">
          <mxGeometry x="35" y="286" width="10" height="204" as="geometry" />
        </mxCell>
        <mxCell id="4TTl5-seLimv4Rh16rUn-82" value="retrieveHospital(speciality)" style="html=1;verticalAlign=bottom;endArrow=block;curved=0;rounded=0;" parent="1" edge="1">
          <mxGeometry width="80" relative="1" as="geometry">
            <mxPoint x="180" y="317" as="sourcePoint" />
            <mxPoint x="365" y="317" as="targetPoint" />
          </mxGeometry>
        </mxCell>
        <mxCell id="4TTl5-seLimv4Rh16rUn-84" value="Select Hospital" style="html=1;verticalAlign=middle;endArrow=open;dashed=1;endSize=8;curved=0;rounded=0;labelPosition=right;verticalLabelPosition=middle;align=left;" parent="1" edge="1">
          <mxGeometry x="0.7576" y="-8" relative="1" as="geometry">
            <mxPoint x="510" y="348" as="sourcePoint" />
            <mxPoint x="180" y="348" as="targetPoint" />
            <mxPoint as="offset" />
          </mxGeometry>
        </mxCell>
        <mxCell id="4TTl5-seLimv4Rh16rUn-85" value="retrieveDoctor(speciality, H_ID)" style="html=1;verticalAlign=bottom;endArrow=block;curved=0;rounded=0;" parent="1" edge="1">
          <mxGeometry width="80" relative="1" as="geometry">
            <mxPoint x="180" y="369" as="sourcePoint" />
            <mxPoint x="365" y="369" as="targetPoint" />
          </mxGeometry>
        </mxCell>
        <mxCell id="4TTl5-seLimv4Rh16rUn-86" value="Select Doctor" style="html=1;verticalAlign=middle;endArrow=open;dashed=1;endSize=8;curved=0;rounded=0;labelPosition=right;verticalLabelPosition=middle;align=left;" parent="1" source="4TTl5-seLimv4Rh16rUn-94" edge="1">
          <mxGeometry x="0.7391" y="-8" relative="1" as="geometry">
            <mxPoint x="364" y="402" as="sourcePoint" />
            <mxPoint x="179" y="402" as="targetPoint" />
            <mxPoint as="offset" />
          </mxGeometry>
        </mxCell>
        <mxCell id="4TTl5-seLimv4Rh16rUn-87" value="retrieveDate(D_ID, H_ID)" style="html=1;verticalAlign=bottom;endArrow=block;curved=0;rounded=0;" parent="1" edge="1">
          <mxGeometry width="80" relative="1" as="geometry">
            <mxPoint x="179" y="423" as="sourcePoint" />
            <mxPoint x="364" y="423" as="targetPoint" />
          </mxGeometry>
        </mxCell>
        <mxCell id="4TTl5-seLimv4Rh16rUn-88" value="Select Date" style="html=1;verticalAlign=bottom;endArrow=open;dashed=1;endSize=8;curved=0;rounded=0;" parent="1" edge="1">
          <mxGeometry relative="1" as="geometry">
            <mxPoint x="364" y="442" as="sourcePoint" />
            <mxPoint x="179" y="442" as="targetPoint" />
          </mxGeometry>
        </mxCell>
        <mxCell id="4TTl5-seLimv4Rh16rUn-89" value=":hospital" style="shape=umlLifeline;perimeter=lifelinePerimeter;whiteSpace=wrap;html=1;container=1;dropTarget=0;collapsible=0;recursiveResize=0;outlineConnect=0;portConstraint=eastwest;newEdgeStyle={&quot;curved&quot;:0,&quot;rounded&quot;:0};" parent="1" vertex="1">
          <mxGeometry x="490" y="9" width="50" height="681" as="geometry" />
        </mxCell>
        <mxCell id="4TTl5-seLimv4Rh16rUn-91" value="" style="html=1;points=[[0,0,0,0,5],[0,1,0,0,-5],[1,0,0,0,5],[1,1,0,0,-5]];perimeter=orthogonalPerimeter;outlineConnect=0;targetShapes=umlLifeline;portConstraint=eastwest;newEdgeStyle={&quot;curved&quot;:0,&quot;rounded&quot;:0};" parent="4TTl5-seLimv4Rh16rUn-89" vertex="1">
          <mxGeometry x="20" y="304" width="10" height="46" as="geometry" />
        </mxCell>
        <mxCell id="4TTl5-seLimv4Rh16rUn-90" value="retrieveHospitalInfo(H_ID)" style="html=1;verticalAlign=bottom;endArrow=block;curved=0;rounded=0;" parent="1" edge="1">
          <mxGeometry width="80" relative="1" as="geometry">
            <mxPoint x="375" y="329" as="sourcePoint" />
            <mxPoint x="510" y="329" as="targetPoint" />
          </mxGeometry>
        </mxCell>
        <mxCell id="4TTl5-seLimv4Rh16rUn-92" value=":doctor" style="shape=umlLifeline;perimeter=lifelinePerimeter;whiteSpace=wrap;html=1;container=1;dropTarget=0;collapsible=0;recursiveResize=0;outlineConnect=0;portConstraint=eastwest;newEdgeStyle={&quot;curved&quot;:0,&quot;rounded&quot;:0};" parent="1" vertex="1">
          <mxGeometry x="550" y="9" width="50" height="681" as="geometry" />
        </mxCell>
        <mxCell id="4TTl5-seLimv4Rh16rUn-94" value="" style="html=1;points=[[0,0,0,0,5],[0,1,0,0,-5],[1,0,0,0,5],[1,1,0,0,-5]];perimeter=orthogonalPerimeter;outlineConnect=0;targetShapes=umlLifeline;portConstraint=eastwest;newEdgeStyle={&quot;curved&quot;:0,&quot;rounded&quot;:0};" parent="4TTl5-seLimv4Rh16rUn-92" vertex="1">
          <mxGeometry x="20" y="360" width="10" height="50" as="geometry" />
        </mxCell>
        <mxCell id="4TTl5-seLimv4Rh16rUn-93" value="retrieveDoctorInfo(D_ID)" style="html=1;verticalAlign=bottom;endArrow=block;curved=0;rounded=0;" parent="1" target="4TTl5-seLimv4Rh16rUn-94" edge="1">
          <mxGeometry width="80" relative="1" as="geometry">
            <mxPoint x="375" y="383" as="sourcePoint" />
            <mxPoint x="510" y="383" as="targetPoint" />
          </mxGeometry>
        </mxCell>
        <mxCell id="4TTl5-seLimv4Rh16rUn-95" value="retrieveTime(D_ID, H_ID, Date)" style="html=1;verticalAlign=bottom;endArrow=block;curved=0;rounded=0;" parent="1" edge="1">
          <mxGeometry width="80" relative="1" as="geometry">
            <mxPoint x="180" y="464" as="sourcePoint" />
            <mxPoint x="365" y="464" as="targetPoint" />
          </mxGeometry>
        </mxCell>
        <mxCell id="4TTl5-seLimv4Rh16rUn-96" value="Select Time" style="html=1;verticalAlign=bottom;endArrow=open;dashed=1;endSize=8;curved=0;rounded=0;" parent="1" edge="1">
          <mxGeometry relative="1" as="geometry">
            <mxPoint x="363" y="484" as="sourcePoint" />
            <mxPoint x="178" y="484" as="targetPoint" />
          </mxGeometry>
        </mxCell>
        <mxCell id="4TTl5-seLimv4Rh16rUn-97" value=":appointment" style="shape=umlLifeline;perimeter=lifelinePerimeter;whiteSpace=wrap;html=1;container=1;dropTarget=0;collapsible=0;recursiveResize=0;outlineConnect=0;portConstraint=eastwest;newEdgeStyle={&quot;curved&quot;:0,&quot;rounded&quot;:0};" parent="1" vertex="1">
          <mxGeometry x="605" y="10" width="80" height="790" as="geometry" />
        </mxCell>
        <mxCell id="4TTl5-seLimv4Rh16rUn-98" value="" style="html=1;points=[[0,0,0,0,5],[0,1,0,0,-5],[1,0,0,0,5],[1,1,0,0,-5]];perimeter=orthogonalPerimeter;outlineConnect=0;targetShapes=umlLifeline;portConstraint=eastwest;newEdgeStyle={&quot;curved&quot;:0,&quot;rounded&quot;:0};" parent="4TTl5-seLimv4Rh16rUn-97" vertex="1">
          <mxGeometry x="35" y="490" width="10" height="150" as="geometry" />
        </mxCell>
        <mxCell id="4TTl5-seLimv4Rh16rUn-111" value="" style="html=1;points=[[0,0,0,0,5],[0,1,0,0,-5],[1,0,0,0,5],[1,1,0,0,-5]];perimeter=orthogonalPerimeter;outlineConnect=0;targetShapes=umlLifeline;portConstraint=eastwest;newEdgeStyle={&quot;curved&quot;:0,&quot;rounded&quot;:0};" parent="4TTl5-seLimv4Rh16rUn-97" vertex="1">
          <mxGeometry x="35" y="701" width="10" height="70" as="geometry" />
        </mxCell>
        <mxCell id="4TTl5-seLimv4Rh16rUn-99" value="bookAppointment(P_ID, D_ID, H_ID, Date)" style="html=1;verticalAlign=bottom;endArrow=block;curved=0;rounded=0;" parent="1" target="4TTl5-seLimv4Rh16rUn-98" edge="1">
          <mxGeometry width="80" relative="1" as="geometry">
            <mxPoint x="180" y="520" as="sourcePoint" />
            <mxPoint x="310" y="520" as="targetPoint" />
          </mxGeometry>
        </mxCell>
        <mxCell id="4TTl5-seLimv4Rh16rUn-101" value="Authenticate" style="html=1;verticalAlign=bottom;endArrow=block;curved=0;rounded=0;" parent="1" target="4TTl5-seLimv4Rh16rUn-102" edge="1">
          <mxGeometry width="80" relative="1" as="geometry">
            <mxPoint x="650" y="540" as="sourcePoint" />
            <mxPoint x="710" y="540" as="targetPoint" />
          </mxGeometry>
        </mxCell>
        <mxCell id="4TTl5-seLimv4Rh16rUn-103" value="Patient Logged In" style="html=1;verticalAlign=bottom;endArrow=open;dashed=1;endSize=8;curved=0;rounded=0;fontSize=8;" parent="1" edge="1">
          <mxGeometry relative="1" as="geometry">
            <mxPoint x="725" y="567" as="sourcePoint" />
            <mxPoint x="650" y="567" as="targetPoint" />
          </mxGeometry>
        </mxCell>
        <mxCell id="4TTl5-seLimv4Rh16rUn-104" value="saveAppointment()" style="html=1;verticalAlign=bottom;endArrow=block;curved=0;rounded=0;" parent="1" target="4TTl5-seLimv4Rh16rUn-70" edge="1">
          <mxGeometry width="80" relative="1" as="geometry">
            <mxPoint x="650" y="600" as="sourcePoint" />
            <mxPoint x="730" y="600" as="targetPoint" />
          </mxGeometry>
        </mxCell>
        <mxCell id="4TTl5-seLimv4Rh16rUn-105" value="Saved Successfully" style="html=1;verticalAlign=bottom;endArrow=open;dashed=1;endSize=8;curved=0;rounded=0;" parent="1" source="4TTl5-seLimv4Rh16rUn-70" edge="1">
          <mxGeometry relative="1" as="geometry">
            <mxPoint x="730" y="620" as="sourcePoint" />
            <mxPoint x="650" y="620" as="targetPoint" />
          </mxGeometry>
        </mxCell>
        <mxCell id="4TTl5-seLimv4Rh16rUn-107" value="Appointment Booked Successfully" style="html=1;verticalAlign=bottom;endArrow=open;dashed=1;endSize=8;curved=0;rounded=0;" parent="1" edge="1">
          <mxGeometry relative="1" as="geometry">
            <mxPoint x="640" y="640" as="sourcePoint" />
            <mxPoint x="180" y="640" as="targetPoint" />
          </mxGeometry>
        </mxCell>
        <mxCell id="4TTl5-seLimv4Rh16rUn-108" value="return to Dashboard" style="html=1;verticalAlign=bottom;endArrow=open;dashed=1;endSize=8;curved=0;rounded=0;" parent="1" target="4TTl5-seLimv4Rh16rUn-69" edge="1">
          <mxGeometry relative="1" as="geometry">
            <mxPoint x="165" y="660" as="sourcePoint" />
            <mxPoint x="85" y="660" as="targetPoint" />
          </mxGeometry>
        </mxCell>
        <mxCell id="4TTl5-seLimv4Rh16rUn-109" value="[View Appointment]" style="text;align=center;fontStyle=1;verticalAlign=middle;spacingLeft=3;spacingRight=3;strokeColor=none;rotatable=0;points=[[0,0.5],[1,0.5]];portConstraint=eastwest;html=1;" parent="1" vertex="1">
          <mxGeometry x="70" y="693" width="110" height="26" as="geometry" />
        </mxCell>
        <mxCell id="4TTl5-seLimv4Rh16rUn-110" value="retrieveAppointments(P_ID, TodayDate)" style="html=1;verticalAlign=bottom;endArrow=block;curved=0;rounded=0;" parent="1" edge="1">
          <mxGeometry width="80" relative="1" as="geometry">
            <mxPoint x="65" y="723" as="sourcePoint" />
            <mxPoint x="640" y="723" as="targetPoint" />
          </mxGeometry>
        </mxCell>
        <mxCell id="4TTl5-seLimv4Rh16rUn-115" value="Display List of Upcoming Appointments" style="html=1;verticalAlign=bottom;endArrow=open;dashed=1;endSize=8;curved=0;rounded=0;" parent="1" edge="1">
          <mxGeometry relative="1" as="geometry">
            <mxPoint x="640" y="771" as="sourcePoint" />
            <mxPoint x="65" y="771" as="targetPoint" />
          </mxGeometry>
        </mxCell>
        <mxCell id="4TTl5-seLimv4Rh16rUn-116" value="[View Prescriptions" style="text;align=center;fontStyle=1;verticalAlign=middle;spacingLeft=3;spacingRight=3;strokeColor=none;rotatable=0;points=[[0,0.5],[1,0.5]];portConstraint=eastwest;html=1;" parent="1" vertex="1">
          <mxGeometry x="70" y="780" width="100" height="26" as="geometry" />
        </mxCell>
        <mxCell id="4TTl5-seLimv4Rh16rUn-117" value=":prescription" style="shape=umlLifeline;perimeter=lifelinePerimeter;whiteSpace=wrap;html=1;container=1;dropTarget=0;collapsible=0;recursiveResize=0;outlineConnect=0;portConstraint=eastwest;newEdgeStyle={&quot;curved&quot;:0,&quot;rounded&quot;:0};" parent="1" vertex="1">
          <mxGeometry x="350" y="782" width="75" height="318" as="geometry" />
        </mxCell>
        <mxCell id="4TTl5-seLimv4Rh16rUn-122" value="" style="html=1;points=[[0,0,0,0,5],[0,1,0,0,-5],[1,0,0,0,5],[1,1,0,0,-5]];perimeter=orthogonalPerimeter;outlineConnect=0;targetShapes=umlLifeline;portConstraint=eastwest;newEdgeStyle={&quot;curved&quot;:0,&quot;rounded&quot;:0};" parent="4TTl5-seLimv4Rh16rUn-117" vertex="1">
          <mxGeometry x="32.5" y="60" width="10" height="240" as="geometry" />
        </mxCell>
        <mxCell id="4TTl5-seLimv4Rh16rUn-118" value="viewPrescriptions(P_ID)" style="html=1;verticalAlign=bottom;endArrow=block;curved=0;rounded=0;" parent="1" edge="1">
          <mxGeometry width="80" relative="1" as="geometry">
            <mxPoint x="65" y="851" as="sourcePoint" />
            <mxPoint x="220" y="851" as="targetPoint" />
          </mxGeometry>
        </mxCell>
        <mxCell id="4TTl5-seLimv4Rh16rUn-119" value="Prescription View" style="shape=umlLifeline;perimeter=lifelinePerimeter;whiteSpace=wrap;html=1;container=1;dropTarget=0;collapsible=0;recursiveResize=0;outlineConnect=0;portConstraint=eastwest;newEdgeStyle={&quot;curved&quot;:0,&quot;rounded&quot;:0};" parent="1" vertex="1">
          <mxGeometry x="180" y="783" width="90" height="317" as="geometry" />
        </mxCell>
        <mxCell id="4TTl5-seLimv4Rh16rUn-120" value="" style="html=1;points=[[0,0,0,0,5],[0,1,0,0,-5],[1,0,0,0,5],[1,1,0,0,-5]];perimeter=orthogonalPerimeter;outlineConnect=0;targetShapes=umlLifeline;portConstraint=eastwest;newEdgeStyle={&quot;curved&quot;:0,&quot;rounded&quot;:0};" parent="4TTl5-seLimv4Rh16rUn-119" vertex="1">
          <mxGeometry x="40" y="54" width="10" height="246" as="geometry" />
        </mxCell>
        <mxCell id="4TTl5-seLimv4Rh16rUn-121" value="retrievePrescriptionsList(P_ID)" style="html=1;verticalAlign=bottom;endArrow=block;curved=0;rounded=0;" parent="1" edge="1">
          <mxGeometry width="80" relative="1" as="geometry">
            <mxPoint x="230" y="905" as="sourcePoint" />
            <mxPoint x="382.5" y="905" as="targetPoint" />
          </mxGeometry>
        </mxCell>
        <mxCell id="4TTl5-seLimv4Rh16rUn-123" value="return Prescriptions List &amp;amp; ID" style="html=1;verticalAlign=bottom;endArrow=open;dashed=1;endSize=8;curved=0;rounded=0;" parent="1" edge="1">
          <mxGeometry relative="1" as="geometry">
            <mxPoint x="382.5" y="928" as="sourcePoint" />
            <mxPoint x="230" y="928" as="targetPoint" />
          </mxGeometry>
        </mxCell>
        <mxCell id="4TTl5-seLimv4Rh16rUn-125" value="viewPrescriptionDetails(ID)" style="html=1;verticalAlign=bottom;endArrow=block;curved=0;rounded=0;" parent="1" edge="1">
          <mxGeometry width="80" relative="1" as="geometry">
            <mxPoint x="230" y="952" as="sourcePoint" />
            <mxPoint x="382.5" y="952" as="targetPoint" />
          </mxGeometry>
        </mxCell>
        <mxCell id="4TTl5-seLimv4Rh16rUn-126" value=":prescribed_in" style="shape=umlLifeline;perimeter=lifelinePerimeter;whiteSpace=wrap;html=1;container=1;dropTarget=0;collapsible=0;recursiveResize=0;outlineConnect=0;portConstraint=eastwest;newEdgeStyle={&quot;curved&quot;:0,&quot;rounded&quot;:0};" parent="1" vertex="1">
          <mxGeometry x="500" y="782" width="80" height="254" as="geometry" />
        </mxCell>
        <mxCell id="4TTl5-seLimv4Rh16rUn-128" value="" style="html=1;points=[[0,0,0,0,5],[0,1,0,0,-5],[1,0,0,0,5],[1,1,0,0,-5]];perimeter=orthogonalPerimeter;outlineConnect=0;targetShapes=umlLifeline;portConstraint=eastwest;newEdgeStyle={&quot;curved&quot;:0,&quot;rounded&quot;:0};" parent="4TTl5-seLimv4Rh16rUn-126" vertex="1">
          <mxGeometry x="35" y="153" width="10" height="50" as="geometry" />
        </mxCell>
        <mxCell id="4TTl5-seLimv4Rh16rUn-127" value="retrieveMedicineList(Pr_ID)" style="html=1;verticalAlign=bottom;endArrow=block;curved=0;rounded=0;labelPosition=center;verticalLabelPosition=top;align=center;" parent="1" edge="1">
          <mxGeometry x="-0.0526" y="6" width="80" relative="1" as="geometry">
            <mxPoint x="392.5" y="964" as="sourcePoint" />
            <mxPoint x="535" y="964" as="targetPoint" />
            <mxPoint as="offset" />
          </mxGeometry>
        </mxCell>
        <mxCell id="4TTl5-seLimv4Rh16rUn-132" value="returnMedicineList" style="html=1;verticalAlign=bottom;endArrow=open;dashed=1;endSize=8;curved=0;rounded=0;" parent="1" edge="1">
          <mxGeometry relative="1" as="geometry">
            <mxPoint x="535" y="983" as="sourcePoint" />
            <mxPoint x="392.5" y="983" as="targetPoint" />
          </mxGeometry>
        </mxCell>
        <mxCell id="4TTl5-seLimv4Rh16rUn-133" value=":test_log" style="shape=umlLifeline;perimeter=lifelinePerimeter;whiteSpace=wrap;html=1;container=1;dropTarget=0;collapsible=0;recursiveResize=0;outlineConnect=0;portConstraint=eastwest;newEdgeStyle={&quot;curved&quot;:0,&quot;rounded&quot;:0};" parent="1" vertex="1">
          <mxGeometry x="595" y="782" width="65" height="318" as="geometry" />
        </mxCell>
        <mxCell id="4TTl5-seLimv4Rh16rUn-135" value="" style="html=1;points=[[0,0,0,0,5],[0,1,0,0,-5],[1,0,0,0,5],[1,1,0,0,-5]];perimeter=orthogonalPerimeter;outlineConnect=0;targetShapes=umlLifeline;portConstraint=eastwest;newEdgeStyle={&quot;curved&quot;:0,&quot;rounded&quot;:0};" parent="4TTl5-seLimv4Rh16rUn-133" vertex="1">
          <mxGeometry x="27.5" y="206" width="10" height="50" as="geometry" />
        </mxCell>
        <mxCell id="4TTl5-seLimv4Rh16rUn-136" value="return Test Info" style="html=1;verticalAlign=bottom;endArrow=open;dashed=1;endSize=8;curved=0;rounded=0;" parent="1" edge="1">
          <mxGeometry relative="1" as="geometry">
            <mxPoint x="685" y="1046" as="sourcePoint" />
            <mxPoint x="392.5" y="1046" as="targetPoint" />
          </mxGeometry>
        </mxCell>
        <mxCell id="4TTl5-seLimv4Rh16rUn-137" value=":test" style="shape=umlLifeline;perimeter=lifelinePerimeter;whiteSpace=wrap;html=1;container=1;dropTarget=0;collapsible=0;recursiveResize=0;outlineConnect=0;portConstraint=eastwest;newEdgeStyle={&quot;curved&quot;:0,&quot;rounded&quot;:0};" parent="1" vertex="1">
          <mxGeometry x="670" y="782" width="40" height="318" as="geometry" />
        </mxCell>
        <mxCell id="4TTl5-seLimv4Rh16rUn-139" value="" style="html=1;points=[[0,0,0,0,5],[0,1,0,0,-5],[1,0,0,0,5],[1,1,0,0,-5]];perimeter=orthogonalPerimeter;outlineConnect=0;targetShapes=umlLifeline;portConstraint=eastwest;newEdgeStyle={&quot;curved&quot;:0,&quot;rounded&quot;:0};" parent="4TTl5-seLimv4Rh16rUn-137" vertex="1">
          <mxGeometry x="15" y="216" width="10" height="64" as="geometry" />
        </mxCell>
        <mxCell id="4TTl5-seLimv4Rh16rUn-138" value="retrieveTest(T_ID)" style="html=1;verticalAlign=bottom;endArrow=block;curved=0;rounded=0;" parent="1" edge="1">
          <mxGeometry width="80" relative="1" as="geometry">
            <mxPoint x="632.5" y="1023" as="sourcePoint" />
            <mxPoint x="685" y="1023" as="targetPoint" />
          </mxGeometry>
        </mxCell>
        <mxCell id="4TTl5-seLimv4Rh16rUn-134" value="retrieveTestList(Prescription_ID)" style="html=1;verticalAlign=bottom;endArrow=block;curved=0;rounded=0;labelPosition=center;verticalLabelPosition=top;align=center;" parent="1" edge="1">
          <mxGeometry x="-0.2418" width="80" relative="1" as="geometry">
            <mxPoint x="393" y="1002" as="sourcePoint" />
            <mxPoint x="622.5" y="1002" as="targetPoint" />
            <mxPoint as="offset" />
          </mxGeometry>
        </mxCell>
        <mxCell id="4TTl5-seLimv4Rh16rUn-140" value="return Medicine &amp;amp; Test Info" style="html=1;verticalAlign=bottom;endArrow=open;dashed=1;endSize=8;curved=0;rounded=0;" parent="1" edge="1">
          <mxGeometry relative="1" as="geometry">
            <mxPoint x="381.5" y="1058" as="sourcePoint" />
            <mxPoint x="229" y="1058" as="targetPoint" />
          </mxGeometry>
        </mxCell>
        <mxCell id="4TTl5-seLimv4Rh16rUn-141" value="return to Dashboard" style="html=1;verticalAlign=bottom;endArrow=open;dashed=1;endSize=8;curved=0;rounded=0;" parent="1" edge="1">
          <mxGeometry relative="1" as="geometry">
            <mxPoint x="215" y="1072" as="sourcePoint" />
            <mxPoint x="65" y="1072" as="targetPoint" />
          </mxGeometry>
        </mxCell>
        <mxCell id="KjWU1lJXTEgovl3a0nkG-1" value="Patient" style="text;html=1;align=center;verticalAlign=middle;whiteSpace=wrap;rounded=0;" vertex="1" parent="1">
          <mxGeometry x="60" y="20" width="60" height="30" as="geometry" />
        </mxCell>
        <mxCell id="KjWU1lJXTEgovl3a0nkG-3" value="Sequence Diagram of Patient" style="text;html=1;align=center;verticalAlign=middle;whiteSpace=wrap;rounded=0;rotation=270;" vertex="1" parent="1">
          <mxGeometry x="-105" y="710" width="270" height="30" as="geometry" />
        </mxCell>
        <mxCell id="KjWU1lJXTEgovl3a0nkG-4" value="Drawn By&lt;div&gt;Joy Kumar Ghosh - 2211424 6 42&lt;/div&gt;" style="text;html=1;align=center;verticalAlign=middle;whiteSpace=wrap;rounded=0;rotation=270;" vertex="1" parent="1">
          <mxGeometry x="-105" y="490" width="270" height="30" as="geometry" />
        </mxCell>
      </root>
    </mxGraphModel>
  </diagram>
</mxfile>
